{"title":"Butthole Surfers - Weird Revolution - Custom Remaster by MC Lurk","uid":7578948,"size":1142287826,"categoryP":"audio","categoryS":"flac","magnet":"?xt=urn:btih:2aafbe443c40761ed5e91d2e779f853e60ed8c22&amp;dn=Butthole+Surfers+-+Weird+Revolution+-+Custom+Remaster+by+MC+Lurk&amp;tr=udp%3A%2F%2Ftracker.openbittorrent.com%3A80&amp;tr=udp%3A%2F%2Fopen.demonii.com%3A1337&amp;tr=udp%3A%2F%2Ftracker.coppersurfer.tk%3A6969&amp;tr=udp%3A%2F%2Fexodus.desync.com%3A6969","seeders":0,"leechers":1,"uploader":"beavis39","files":-1,"time":1346189575,"description":"Butthole Surfers - Weird Revolution - Custom Remaster by MC Lurken (a.k.a. Beavis39)\n\n\n\n!!!!!!!!!!This is a custom remaster intended to increase the dynamic range and is NOT an official remaster!!!!!!!!!!\n\n\n\n1 - The Weird Revolution\n2 - The Shame Of Life\n3 - Dracula From Houston\n4 - Venus\n5 - Shit Like That\n6 - Mexico\n7 - Intelligent Guy\n8 - Get Down\n9 - Jet Fighter\n10 - The Last Astronaut\n11 - Yentel\n12 - They Came In\n\n\nSetup:\n-HP G72-250US\n-Intel Core i3 M350 2.27GHz\n-8Gb PC3-10700 RAM\n-Win7 64-bit SP1\n-SB X-Fi Surround 5.1\n\nProcess:\n-Original 16-bit/44.1kHz files joined in Wavelab 6\n-Remove DC offset and save as 64-bit float/44.1kHz\n-Resample to 384kHz in Wavelab w/crystal resampler ultra(slow) relax background priority\n-Create new 64-bit/384kHz master recording in Wavelab\n\nAs reported in Wavelab:\n-Original 16-bit/44.1kHz: Apparent Bit Resolution = 16, Peak = -0.071db\n-With DC Offset Removed: Apparent Bit Resolution = no offset (16), Peak = -0.071db\n-64-bit/384kHz Recording: Apparent Bit Resolution = 39, Peak = 1.041db\n\n-Resample 64-bit/384kHz to 64-bit/96kHz in Wavelab w/crystal resampler ultra(slow) relax background priority\n-Apply MBIT+ Dither in Wavelab w/Izotope Ozone 5 VST Plugin\n\nMBIT+ Dither Settings:\n*Noise Shaping - Light\n*Bit Depth - 24\n*Dither Amount - Low\n*Auto-Blanking - On\n*Limit Peaks - Off\n*Harmonic Suppression - On\n\n-Flac encode level 0 with Trader's Little Helper\n-Tag and pic with xrecode II\n\n\nfoobar2000 1.1.13 / Dynamic Range Meter 1.1.1\nlog date: 2012-08-28 14:08:29\n\n--------------------------------------------------------------------------------\nAnalyzed: ? / ?\n--------------------------------------------------------------------------------\n\nDR         Peak         RMS     Duration Track\n--------------------------------------------------------------------------------\nDR7       -0.59 dB    -9.77 dB      3:36 ?-01 - The Weird Revolution\nDR8       -0.56 dB   -10.36 dB      3:54 ?-02 - The Shame Of Life\nDR6       -0.12 dB    -7.74 dB      3:43 ?-03 - Dracula From Houston\nDR6       -0.49 dB    -7.71 dB      3:55 ?-04 - Venus\nDR6       -0.59 dB    -8.25 dB      3:19 ?-05 - Shit Like That\nDR7        0.00 dB    -9.25 dB      3:50 ?-06 - Mexico\nDR5       -0.22 dB    -8.13 dB      3:05 ?-07 - Intelligent Guy\nDR5       -0.52 dB    -6.88 dB      5:30 ?-08 - Get Down\nDR6       -0.35 dB    -7.63 dB      2:58 ?-09 - Jet Fighter\nDR6       -0.21 dB    -8.05 dB      4:08 ?-10 - The Last Astronaut\nDR8       -0.24 dB   -10.52 dB      3:23 ?-11 - Yentel\nDR7       -0.39 dB    -9.05 dB      4:43 ?-12 - They Came In\n--------------------------------------------------------------------------------\n\nNumber of tracks:  12\nOfficial DR value: DR6\n\nSamplerate:        96000 Hz\nChannels:          2\nBits per sample:   24\nBitrate:           4608 kbps\nCodec:             PCM\n\n\n\nMC Lurken - Fighting The Loudness War One CD At A Time\n\n\nenjoy :)","torrent":{"xt":"urn:btih:2aafbe443c40761ed5e91d2e779f853e60ed8c22","amp;dn":"Butthole+Surfers+-+Weird+Revolution+-+Custom+Remaster+by+MC+Lurk","amp;tr":["udp%3A%2F%2Ftracker.openbittorrent.com%3A80","udp%3A%2F%2Fopen.demonii.com%3A1337","udp%3A%2F%2Ftracker.coppersurfer.tk%3A6969","udp%3A%2F%2Fexodus.desync.com%3A6969"],"infoHash":"2aafbe443c40761ed5e91d2e779f853e60ed8c22","infoHashBuffer":{"type":"Buffer","data":[42,175,190,68,60,64,118,30,213,233,29,46,119,159,133,62,96,237,140,34]},"announce":[],"urlList":[]}}